#!OML:ASF H:\ManfredETheater\Project 1\Capture day 1\Session 1\subject.ASF
:FULLY-SPECIFIED
:DEGREES
107
root 1.0818 17.4389 -11.8554 -188.117 -8.28013 179.131
lowerback 7.26362 -0.473492 1.36735
upperback -2.41704 -0.420528 2.42167
thorax -6.60179 -0.239892 1.82413
lowerneck -17.3628 -2.81991 -3.84384
upperneck 16.2348 -2.86931 -0.622774
head 7.93117 -1.71902 0.0741311
rclavicle -9.93923e-015 1.82882e-014
rhumerus -37.9092 2.6296 -80.2102
rradius 63.6683
rwrist -5.52941
rhand -24.9692 -1.47636
rfingers 7.12502
rthumb 1.54135 -31.4505
lclavicle -9.93923e-015 1.82882e-014
lhumerus -47.2392 -2.84729 93.5249
lradius 48.525
lwrist -7.33016
lhand -17.3054 1.28917
lfingers 7.12502
lthumb 8.94065 31.0797
rfemur -16.8934 -2.03925 22.3999
rtibia 40.3396
rfoot -9.23366 -12.3359
rtoes -4.51372
lfemur -24.3584 -2.84271 -20.5456
ltibia 49.2041
lfoot -8.4004 -13.0132
ltoes 3.75782
108
root 1.07832 17.4822 -11.9878 -187.759 -8.12299 179.055
lowerback 6.89821 -0.46038 1.31324
upperback -2.51614 -0.418549 2.43982
thorax -6.49637 -0.237854 1.86936
lowerneck -17.3308 -2.74315 -3.76447
upperneck 16.3225 -2.78783 -0.634351
head 7.952 -1.67943 0.0666556
rclavicle 8.74653e-015 2.54444e-014
rhumerus -37.8107 2.83734 -80.3862
rradius 63.3353
rwrist -5.76967
rhand -24.8478 -1.92282
rfingers 7.12502
rthumb 1.65857 -31.8961
lclavicle 8.74653e-015 2.54444e-014
lhumerus -47.5991 -2.56954 93.2646
lradius 47.4181
lwrist -6.99212
lhand -16.2946 2.31882
lfingers 7.12502
lthumb 9.91596 32.0653
rfemur -16.4273 -1.86695 22.3847
rtibia 39.7111
rfoot -9.47148 -12.3075
rtoes -4.51624
lfemur -23.7576 -2.95577 -20.6774
ltibia 48.3095
lfoot -8.16789 -12.57
ltoes 5.30906
109
root 1.0752 17.5221 -12.1166 -187.411 -7.98078 178.963
lowerback 6.57243 -0.460295 1.2346
upperback -2.61589 -0.435006 2.44957
thorax -6.41374 -0.243924 1.92247
lowerneck -17.3076 -2.657 -3.66829
upperneck 16.4151 -2.69676 -0.648587
head 7.97564 -1.63452 0.056551
rclavicle -6.16232e-015 2.38542e-015
rhumerus -37.7032 3.03145 -80.5732
rradius 62.9823
rwrist -5.97505
rhand -24.7006 -2.28486
rfingers 7.12502
rthumb 1.8007 -32.257
lclavicle -6.16232e-015 2.38542e-015
lhumerus -47.9455 -2.2712 92.9775
lradius 46.3545
lwrist -6.67776
lhand -15.3061 3.2212
lfingers 7.12502
lthumb 10.8696 32.9199
rfemur -15.9937 -1.71376 22.3463
rtibia 39.1409
rfoot -9.7084 -12.2729
rtoes -4.52784
lfemur -23.1481 -3.01077 -20.8408
ltibia 47.5595
lfoot -8.29307 -12.0291
ltoes 6.39874
110
root 1.0725 17.5591 -12.2419 -187.071 -7.84346 178.869
lowerback 6.28043 -0.469589 1.14848
upperback -2.71597 -0.463587 2.45584
thorax -6.35039 -0.255746 1.97802
lowerneck -17.2955 -2.5641 -3.5602
upperneck 16.5121 -2.5986 -0.663998
head 8.00247 -1.58561 0.0447845
rclavicle 1.68967e-014 3.18055e-014
rhumerus -37.5886 3.19806 -80.7663
rradius 62.6062
rwrist -6.13109
rhand -24.5253 -2.55938
rfingers 7.12502
rthumb 1.97004 -32.53
lclavicle 1.68967e-014 3.18055e-014
lhumerus -48.2622 -1.94764 92.6604
lradius 45.3065
lwrist -6.42935
lhand -14.389 3.93161
lfingers 7.12502
lthumb 11.754 33.5818
rfemur -15.5993 -1.5639 22.3058
rtibia 38.6261
rfoot -9.93842 -12.2446
rtoes -4.53332
lfemur -22.5462 -3.03185 -21.0107
ltibia 46.8989
lfoot -8.68156 -11.4135
ltoes 7.00982
